<svg width="221" height="60" viewBox="0 0 221 60" fill="none" xmlns="http://www.w3.org/2000/svg">
<rect width="60" height="60" fill="#711717"/>
<rect x="12" y="20" width="36" height="1.59375" fill="white"/>
<rect x="12" y="29.2031" width="36" height="1.59375" fill="white"/>
<rect x="12" y="38.4062" width="36" height="1.59375" fill="white"/>
<g clip-path="url(#clip0_1811_3640)">
<path fill-rule="evenodd" clip-rule="evenodd" d="M60 0H221V60H60V0Z" fill="#A92323"/>
<path fill-rule="evenodd" clip-rule="evenodd" d="M176.869 22.3481C184.548 22.3481 190.393 27.1417 190.396 35.4346C190.401 43.532 184.548 48.4738 176.869 48.4738C169.19 48.4738 163.327 43.532 163.342 35.4346C163.358 27.1417 169.19 22.3481 176.869 22.3481ZM83.7056 12.0007L91.4658 31.8445H91.5584L99.3137 12.0007H111.019V47.9979L102.286 47.9995L102.305 29.1885H102.218L95.3557 47.9995H87.6538L80.7859 29.1885H80.7086L80.7325 47.9995H72V12.0007H83.7056ZM123.306 23.0221V47.9979H114.648V23.0221H123.306ZM142.292 22.4473C143.299 22.4473 144.603 22.7632 145.401 22.9964L143.842 30.007C143.075 29.6982 142.868 29.6377 141.861 29.6377C137.702 29.6377 135.285 32.5618 135.285 37.4513V47.9977H126.953V23.0225H134.814V27.6244H134.91C136.396 24.4606 138.554 22.4473 142.292 22.4473ZM161.744 22.4473C162.751 22.4473 164.055 22.7632 164.853 22.9964L163.294 30.007C162.528 29.6982 162.32 29.6377 161.313 29.6377C157.154 29.6377 154.738 32.5618 154.738 37.4513V47.9977H146.404V23.0225H154.267V27.6244H154.362C155.848 24.4606 158.005 22.4473 161.744 22.4473ZM207.403 22.4473C208.409 22.4473 209.713 22.7632 210.511 22.9964L208.952 30.007C208.185 29.6982 207.977 29.6377 206.971 29.6377C202.812 29.6377 200.395 32.5618 200.395 37.4513V47.9977H192.063V23.0225H199.925V27.6244H200.02C201.506 24.4606 203.664 22.4473 207.403 22.4473ZM176.699 29.4513C173.379 29.4513 171.646 31.6962 171.646 35.4346C171.646 39.1262 173.379 41.4947 176.776 41.4947C180.173 41.4947 182.093 39.1262 182.093 35.4346C182.093 31.6962 180.173 29.4513 176.699 29.4513ZM118.982 9.88C121.767 9.88 124.024 12.0938 124.024 14.8239C124.024 17.5541 121.767 19.7668 118.982 19.7668C116.197 19.7668 113.939 17.5541 113.939 14.8239C113.939 12.0938 116.197 9.88 118.982 9.88Z" fill="white"/>
</g>
<defs>
<clipPath id="clip0_1811_3640">
<rect width="161" height="60" fill="white" transform="translate(60)"/>
</clipPath>
</defs>
</svg>
