<svg width="84" height="31" viewBox="0 0 84 31" fill="none" xmlns="http://www.w3.org/2000/svg">
<g clip-path="url(#clip0_1811_3630)">
<g clip-path="url(#clip1_1811_3630)">
<path fill-rule="evenodd" clip-rule="evenodd" d="M0 0H84V31.3043H0V0Z" fill="#A92323"/>
<path fill-rule="evenodd" clip-rule="evenodd" d="M60.9753 11.6598C64.9817 11.6598 68.031 14.1609 68.033 18.4876C68.0352 22.7124 64.9817 25.2907 60.9751 25.2907C56.9688 25.2907 53.9096 22.7124 53.9176 18.4876C53.926 14.1609 56.9688 11.6598 60.9753 11.6598ZM12.3682 6.26113L16.4169 16.6145H16.4652L20.5115 6.26126H26.6185V25.0424L22.0624 25.0432L22.0723 15.2288H22.0269L18.4465 25.0432H14.428L10.8449 15.2288H10.8044L10.817 25.0432H6.26086V6.26126L12.3682 6.26113ZM33.0291 12.0116V25.0424H28.512V12.0116H33.0291ZM42.9351 11.7116C43.4603 11.7116 44.1407 11.8765 44.557 11.9982L43.7436 15.6558C43.3435 15.4947 43.2352 15.4632 42.7099 15.4632C40.5402 15.4632 39.2794 16.9887 39.2794 19.5398V25.0423H34.932V12.0119H39.0335V14.4128H39.0832C39.8589 12.762 40.9846 11.7116 42.9351 11.7116ZM53.0841 11.7116C53.6092 11.7116 54.2897 11.8765 54.7058 11.9982L53.8926 15.6558C53.4927 15.4947 53.3842 15.4632 52.859 15.4632C50.689 15.4632 49.4283 16.9887 49.4283 19.5398V25.0423H45.0806V12.0119H49.1828V14.4128H49.2325C50.0078 12.762 51.1333 11.7116 53.0841 11.7116ZM76.9056 11.7116C77.4309 11.7116 78.111 11.8765 78.5273 11.9982L77.7142 15.6558C77.3142 15.4947 77.2055 15.4632 76.6804 15.4632C74.5105 15.4632 73.2497 16.9887 73.2497 19.5398V25.0423H68.9023V12.0119H73.0041V14.4128H73.0539C73.8295 12.762 74.9549 11.7116 76.9056 11.7116ZM60.8863 15.3659C59.1544 15.3659 58.25 16.5372 58.25 18.4876C58.25 20.4137 59.1544 21.6493 60.9265 21.6493C62.699 21.6493 63.7004 20.4137 63.7004 18.4876C63.7004 16.5372 62.699 15.3659 60.8863 15.3659ZM30.7732 5.15479C32.226 5.15479 33.4038 6.30979 33.4038 7.73426C33.4038 9.15861 32.226 10.3131 30.7732 10.3131C29.32 10.3131 28.1423 9.15874 28.1423 7.73426C28.1423 6.30992 29.32 5.15479 30.7732 5.15479Z" fill="white"/>
</g>
<g clip-path="url(#clip2_1811_3630)">
<path fill-rule="evenodd" clip-rule="evenodd" d="M0.00997925 0H83.99V31.2969H0.00997925V0Z" fill="#A92323"/>
<path fill-rule="evenodd" clip-rule="evenodd" d="M60.9707 11.6571C64.9762 11.6571 68.0247 14.1575 68.0267 18.4832C68.029 22.7069 64.9762 25.2846 60.9707 25.2846C56.9652 25.2846 53.9068 22.7069 53.9147 18.4832C53.9232 14.1575 56.9652 11.6571 60.9707 11.6571ZM12.3752 6.25974L16.423 16.6106H16.4713L20.5166 6.25974H26.6221V25.0364L22.0671 25.0373L22.0771 15.2251H22.0316L18.452 25.0373H14.4346L10.8522 15.2251H10.8119L10.8244 25.0373H6.26935V6.25974H12.3752ZM33.0313 12.0087V25.0364H28.5152V12.0087H33.0313ZM42.9349 11.7089C43.46 11.7089 44.1402 11.8737 44.5564 11.9953L43.7432 15.6521C43.3432 15.491 43.2349 15.4595 42.7098 15.4595C40.5404 15.4595 39.28 16.9847 39.28 19.5351V25.0363H34.9335V12.0089H39.0342V14.4093H39.0839C39.8594 12.759 40.9848 11.7089 42.9349 11.7089ZM53.0814 11.7089C53.6065 11.7089 54.2867 11.8737 54.7027 11.9953L53.8898 15.6521C53.49 15.491 53.3815 15.4595 52.8564 15.4595C50.687 15.4595 49.4265 16.9847 49.4265 19.5351V25.0363H45.0798V12.0089H49.181V14.4093H49.2308C50.0059 12.759 51.1311 11.7089 53.0814 11.7089ZM76.8974 11.7089C77.4225 11.7089 78.1024 11.8737 78.5187 11.9953L77.7057 15.6521C77.3057 15.491 77.1972 15.4595 76.6721 15.4595C74.5027 15.4595 73.2422 16.9847 73.2422 19.5351V25.0363H68.8958V12.0089H72.9967V14.4093H73.0465C73.8219 12.759 74.9471 11.7089 76.8974 11.7089ZM60.8818 15.3623C59.1502 15.3623 58.2461 16.5332 58.2461 18.4832C58.2461 20.4088 59.1502 21.6443 60.9218 21.6443C62.694 21.6443 63.6953 20.4088 63.6953 18.4832C63.6953 16.5332 62.694 15.3623 60.8818 15.3623ZM30.7758 5.15356C32.2284 5.15356 33.4058 6.3083 33.4058 7.7324C33.4058 9.1565 32.2284 10.3107 30.7758 10.3107C29.323 10.3107 28.1456 9.1565 28.1456 7.7324C28.1456 6.3083 29.323 5.15356 30.7758 5.15356Z" fill="white"/>
</g>
</g>
<defs>
<clipPath id="clip0_1811_3630">
<rect width="84" height="31" fill="white"/>
</clipPath>
<clipPath id="clip1_1811_3630">
<rect width="84" height="31.3043" fill="white"/>
</clipPath>
<clipPath id="clip2_1811_3630">
<rect width="84" height="31.2969" fill="white"/>
</clipPath>
</defs>
</svg>
