<svg width="84" height="35" viewBox="0 0 84 35" fill="none" xmlns="http://www.w3.org/2000/svg">
<rect y="0.953125" width="34" height="34" rx="17" fill="#F9F8F2"/>
<g clip-path="url(#clip0_1912_9137)">
<path fill-rule="evenodd" clip-rule="evenodd" d="M18.6522 27.7603V18.7639H21.559L21.9951 15.2569H18.6522V13.0181C18.6522 12.0031 18.9226 11.3113 20.3258 11.3113L22.1127 11.3106V8.17372C21.8037 8.13202 20.743 8.03642 19.5084 8.03642C16.9304 8.03642 15.1655 9.67042 15.1655 12.6708V15.2568H12.25V18.7639H15.1655V27.7603H18.6522Z" fill="#121212"/>
</g>
<rect x="50" y="0.953125" width="34" height="34" rx="17" fill="#F9F8F2"/>
<g clip-path="url(#clip1_1912_9137)">
<path fill-rule="evenodd" clip-rule="evenodd" d="M75.9833 12.362C75.3033 12.6642 74.6233 12.8909 73.8678 12.9664C74.6233 12.5131 75.2278 11.7575 75.53 10.9264C74.7744 11.3798 74.0189 11.682 73.1878 11.8331C72.8445 11.4522 72.4249 11.1477 71.9563 10.9395C71.4877 10.7312 70.9806 10.6238 70.4678 10.6242C68.4278 10.6242 66.7656 12.2864 66.7656 14.3264C66.7656 14.6287 66.7656 14.9309 66.8411 15.1575C63.6678 15.0065 60.9478 13.4953 59.1344 11.2287C58.7567 11.8331 58.6056 12.4375 58.6056 13.1175C58.6056 14.402 59.2856 15.5353 60.2678 16.2153C59.6633 16.2153 59.0588 16.0643 58.6056 15.762V15.8375C58.6056 17.6509 59.89 19.162 61.5522 19.4642C61.25 19.5398 60.9478 19.6153 60.57 19.6153C60.3433 19.6153 60.1167 19.6153 59.89 19.5398C60.3433 21.0508 61.7033 22.1087 63.3656 22.1087C62.0811 23.0909 60.4944 23.6953 58.7566 23.6953C58.4544 23.6953 58.1522 23.6953 57.85 23.6198C59.5122 24.6775 61.4767 25.282 63.5167 25.282C70.3922 25.282 74.0944 19.6153 74.0944 14.7042V14.2509C74.85 13.7219 75.4543 13.042 75.9833 12.362Z" fill="#121212"/>
</g>
<defs>
<clipPath id="clip0_1912_9137">
<rect width="11" height="20" fill="white" transform="translate(11.5 7.95312)"/>
</clipPath>
<clipPath id="clip1_1912_9137">
<rect width="19" height="16" fill="white" transform="translate(57.5 9.95312)"/>
</clipPath>
</defs>
</svg>
