<svg width="112" height="71" viewBox="0 0 112 71" fill="none" xmlns="http://www.w3.org/2000/svg">
<path fill-rule="evenodd" clip-rule="evenodd" d="M15 27.9434C21.9036 27.9434 27.5 22.3469 27.5 15.4434C27.5 8.5398 21.9036 2.94336 15 2.94336C8.09644 2.94336 2.5 8.5398 2.5 15.4434C2.5 22.3469 8.09644 27.9434 15 27.9434ZM17.0752 10.9059C17.4061 10.9059 17.9323 10.9641 18.3219 11.042L18.6721 8.84107C17.9126 8.68524 17.3282 8.56836 16.5298 8.56836C14.2317 8.56836 13.3165 9.65919 13.3165 11.6067V13.0284H11.875V15.3269H13.3165V22.3184H16.121V15.3269H18.1656L18.3609 13.0284H16.121V11.9188C16.121 11.2954 16.1792 10.9059 17.0752 10.9059Z" fill="#005594"/>
<path fill-rule="evenodd" clip-rule="evenodd" d="M55 27.9434C61.9036 27.9434 67.5 22.3469 67.5 15.4434C67.5 8.5398 61.9036 2.94336 55 2.94336C48.0964 2.94336 42.5 8.5398 42.5 15.4434C42.5 22.3469 48.0964 27.9434 55 27.9434ZM58.0307 9.33857C57.2398 9.30249 57.0026 9.29484 55 9.29484C52.9974 9.29484 52.7602 9.30249 51.9694 9.33857C51.2381 9.37192 50.841 9.4941 50.5767 9.59681C50.2266 9.73286 49.9768 9.89538 49.7144 10.1578C49.4519 10.4203 49.2894 10.6701 49.1533 11.0202C49.0506 11.2845 48.9284 11.6816 48.8951 12.4128C48.859 13.2037 48.8514 13.4409 48.8514 15.4435C48.8514 17.446 48.859 17.6833 48.8951 18.4741C48.9284 19.2053 49.0506 19.6025 49.1533 19.8667C49.2894 20.2168 49.4519 20.4667 49.7144 20.7291C49.9768 20.9916 50.2266 21.1541 50.5767 21.2901C50.841 21.3928 51.2381 21.515 51.9694 21.5484C52.7601 21.5844 52.9973 21.5921 55 21.5921C57.0027 21.5921 57.2399 21.5844 58.0307 21.5484C58.7619 21.515 59.159 21.3928 59.4233 21.2901C59.7734 21.1541 60.0232 20.9916 60.2857 20.7291C60.5481 20.4667 60.7106 20.2168 60.8467 19.8667C60.9494 19.6025 61.0716 19.2053 61.1049 18.4741C61.141 17.6833 61.1487 17.446 61.1487 15.4435C61.1487 13.4409 61.141 13.2037 61.1049 12.4128C61.0716 11.6816 60.9494 11.2845 60.8467 11.0202C60.7106 10.6701 60.5481 10.4203 60.2857 10.1578C60.0232 9.89538 59.7734 9.73286 59.4233 9.59681C59.159 9.4941 58.7619 9.37192 58.0307 9.33857ZM51.9078 7.98863C52.7077 7.95213 52.9631 7.94349 55 7.94349C57.0369 7.94349 57.2923 7.95213 58.0923 7.98863C58.8905 8.02504 59.4357 8.15183 59.9128 8.33722C60.406 8.52889 60.8242 8.78533 61.2412 9.20228C61.6582 9.61926 61.9146 10.0375 62.1063 10.5307C62.2917 11.0078 62.4185 11.553 62.4549 12.3512C62.4914 13.1512 62.5 13.4066 62.5 15.4435C62.5 17.4803 62.4914 17.7357 62.4549 18.5357C62.4185 19.334 62.2917 19.8792 62.1063 20.3562C61.9146 20.8494 61.6582 21.2677 61.2412 21.6847C60.8242 22.1016 60.406 22.3581 59.9128 22.5497C59.4357 22.7351 58.8905 22.8619 58.0923 22.8983C57.2923 22.9348 57.0369 22.9434 55 22.9434C52.9631 22.9434 52.7077 22.9348 51.9078 22.8983C51.1095 22.8619 50.5643 22.7351 50.0872 22.5497C49.594 22.3581 49.1758 22.1016 48.7588 21.6847C48.3419 21.2677 48.0854 20.8494 47.8938 20.3562C47.7084 19.8792 47.5816 19.334 47.5451 18.5357C47.5086 17.7357 47.5 17.4803 47.5 15.4435C47.5 13.4066 47.5086 13.1512 47.5451 12.3512C47.5816 11.553 47.7084 11.0078 47.8938 10.5307C48.0854 10.0375 48.3419 9.61926 48.7588 9.20228C49.1758 8.78533 49.594 8.52889 50.0872 8.33722C50.5643 8.15183 51.1095 8.02504 51.9078 7.98863ZM55.0035 11.5956C52.8764 11.5956 51.1521 13.3199 51.1521 15.4469C51.1521 17.5739 52.8764 19.2982 55.0035 19.2982C57.1305 19.2982 58.8548 17.5739 58.8548 15.4469C58.8548 13.3199 57.1305 11.5956 55.0035 11.5956ZM55.0035 17.9469C53.6228 17.9469 52.5035 16.8276 52.5035 15.4469C52.5035 14.0662 53.6228 12.9469 55.0035 12.9469C56.3842 12.9469 57.5035 14.0662 57.5035 15.4469C57.5035 16.8276 56.3842 17.9469 55.0035 17.9469ZM59.0067 12.3411C59.5038 12.3411 59.9067 11.9381 59.9067 11.4411C59.9067 10.944 59.5038 10.5411 59.0067 10.5411C58.5097 10.5411 58.1067 10.944 58.1067 11.4411C58.1067 11.9381 58.5097 12.3411 59.0067 12.3411Z" fill="#005594"/>
<path fill-rule="evenodd" clip-rule="evenodd" d="M95 27.9434C101.904 27.9434 107.5 22.3469 107.5 15.4434C107.5 8.5398 101.904 2.94336 95 2.94336C88.0964 2.94336 82.5 8.5398 82.5 15.4434C82.5 22.3469 88.0964 27.9434 95 27.9434ZM100.733 11.121C101.355 11.0465 101.949 10.8815 102.5 10.6365C102.088 11.2535 101.566 11.7954 100.964 12.2304C100.97 12.3619 100.973 12.4949 100.973 12.6284C100.973 16.6946 97.8773 21.3838 92.2172 21.3838C90.4793 21.3838 88.8619 20.8738 87.5 20.0009C87.7405 20.0299 87.9855 20.0444 88.2344 20.0444C89.6764 20.0444 91.0033 19.5519 92.0562 18.727C90.7098 18.702 89.5729 17.812 89.1814 16.5896C89.3694 16.6256 89.5624 16.6451 89.7608 16.6451C90.0413 16.6451 90.3133 16.6071 90.5713 16.5371C89.1644 16.2536 88.103 15.0102 88.103 13.5188V13.4803C88.5184 13.7108 88.9924 13.8493 89.4974 13.8653C88.6709 13.3133 88.1285 12.3714 88.1285 11.304C88.1285 10.74 88.2799 10.2115 88.5449 9.75707C90.0628 11.6189 92.3302 12.8444 94.888 12.9724C94.8355 12.7469 94.808 12.5119 94.808 12.2709C94.808 10.5715 96.1859 9.1936 97.8853 9.1936C98.7697 9.1936 99.5702 9.56758 100.132 10.1655C100.832 10.027 101.492 9.77156 102.086 9.41859C101.856 10.137 101.368 10.74 100.733 11.121Z" fill="#005594"/>
<path fill-rule="evenodd" clip-rule="evenodd" d="M27.5 55.4434C27.5 62.3469 21.9036 67.9434 15 67.9434C8.09644 67.9434 2.5 62.3469 2.5 55.4434C2.5 48.5398 8.09644 42.9434 15 42.9434C21.9036 42.9434 27.5 48.5398 27.5 55.4434ZM11.7342 49.3709C11.7342 50.1491 11.1417 50.7789 10.2151 50.7789C9.3246 50.7789 8.73208 50.1491 8.75041 49.3709C8.73208 48.5549 9.32458 47.9435 10.2328 47.9435C11.1417 47.9435 11.7165 48.5549 11.7342 49.3709ZM8.82491 60.9548V51.8911H11.642V60.9548H8.82491ZM13.8253 51.8925C13.8626 52.6896 13.8998 53.6534 13.8998 54.784H13.901V60.9567H16.718V55.7295C16.718 55.4693 16.7547 55.2103 16.8292 55.0247C17.0143 54.5061 17.4773 53.9686 18.2561 53.9686C19.2755 53.9686 19.6829 54.7651 19.6829 55.9335V60.9567H22.5V55.5805C22.5 52.9125 21.1098 51.689 19.2566 51.689C17.7552 51.689 16.8286 52.5595 16.4579 53.1342H16.4023L16.2722 51.8925H13.8253Z" fill="#005594"/>
<rect x="43" y="42.4951" width="25" height="25" rx="12.5" fill="#005594"/>
<path d="M62.6835 51.1861C62.5982 50.869 62.431 50.5798 62.1988 50.3476C61.9666 50.1154 61.6775 49.9483 61.3604 49.8629C60.1926 49.5469 55.5 49.5469 55.5 49.5469C55.5 49.5469 50.8074 49.5469 49.6396 49.8629C49.3225 49.9483 49.0334 50.1154 48.8012 50.3476C48.569 50.5798 48.4018 50.869 48.3165 51.1861C48.0984 52.377 47.9926 53.5858 48.0004 54.7966C47.9926 56.0073 48.0984 57.2161 48.3165 58.4071C48.4018 58.7242 48.569 59.0133 48.8012 59.2455C49.0334 59.4778 49.3225 59.6449 49.6396 59.7303C50.8074 60.0463 55.5 60.0463 55.5 60.0463C55.5 60.0463 60.1926 60.0463 61.3604 59.7303C61.6775 59.6449 61.9666 59.4778 62.1988 59.2455C62.431 59.0133 62.5982 58.7242 62.6835 58.4071C62.9016 57.2161 63.0074 56.0073 62.9996 54.7966C63.0074 53.5858 62.9016 52.377 62.6835 51.1861ZM54.0001 57.0465V52.5467L57.8945 54.7966L54.0001 57.0465Z" fill="white"/>
<rect x="84" y="42.4951" width="25" height="25" rx="12.5" fill="#005594"/>
<path d="M101.113 62.2607H104C104 54.1232 97.2687 47.4951 89 47.4951V50.3264C95.675 50.3264 101.113 55.6795 101.113 62.2607ZM96.0125 62.2607H98.9C98.9 56.8889 94.4563 52.5107 89 52.5107V55.342C90.875 55.342 92.6281 56.0639 93.9594 57.367C94.6105 58.0047 95.1276 58.7661 95.4802 59.6065C95.8328 60.4469 96.0138 61.3494 96.0125 62.2607ZM90.9969 62.242C92.0938 62.242 92.9938 61.3701 92.9938 60.2826C92.9938 59.2045 92.0938 58.3232 90.9969 58.3232C89.8906 58.3232 89 59.2045 89 60.2826C89 61.3701 89.8906 62.242 90.9969 62.242Z" fill="white"/>
</svg>
