<svg width="252" height="30" viewBox="0 0 252 30" fill="none" xmlns="http://www.w3.org/2000/svg">
<mask id="mask0_1809_34241" style="mask-type:alpha" maskUnits="userSpaceOnUse" x="0" y="0" width="30" height="30">
<g clip-path="url(#clip0_1809_34241)">
<path fill-rule="evenodd" clip-rule="evenodd" d="M30 15C30 6.716 23.284 0 15 0C6.716 0 0 6.716 0 15C0 22.487 5.485 28.692 12.656 29.818V19.336H8.848V15H12.656V11.695C12.656 7.935 14.896 5.859 18.322 5.859C19.963 5.859 21.68 6.152 21.68 6.152V9.844H19.788C17.925 9.844 17.344 11 17.344 12.186V15H21.504L20.839 19.336H17.344V29.818C24.514 28.692 30 22.487 30 15Z" fill="white"/>
</g>
</mask>
<g mask="url(#mask0_1809_34241)">
<rect width="30" height="30" fill="#1877F2"/>
</g>
<mask id="mask1_1809_34241" style="mask-type:alpha" maskUnits="userSpaceOnUse" x="40" y="0" width="30" height="30">
<g clip-path="url(#clip1_1809_34241)">
<path fill-rule="evenodd" clip-rule="evenodd" d="M55 0C63.284 0 70 6.716 70 15C70 23.284 63.284 30 55 30C46.716 30 40 23.284 40 15C40 6.716 46.716 0 55 0ZM57.09 8.757C56.394 9.12669 55.8397 9.71592 55.5131 10.4331C55.1865 11.1503 55.106 11.9553 55.284 12.723C53.8577 12.6525 52.4622 12.2834 51.1875 11.6397C49.9128 10.996 48.7874 10.0919 47.884 8.986C47.4251 9.77354 47.2847 10.7067 47.4914 11.5944C47.6982 12.4821 48.2364 13.2572 48.996 13.761C48.4247 13.7442 47.8657 13.5905 47.366 13.313V13.359C47.3676 14.1862 47.6553 14.9873 48.1805 15.6264C48.7057 16.2655 49.4358 16.7031 50.247 16.865C49.7184 17.0085 49.1639 17.0293 48.626 16.926C48.8567 17.6379 49.3038 18.26 49.9051 18.7055C50.5064 19.151 51.2318 19.3977 51.98 19.411C50.4748 20.5885 48.5643 21.1214 46.667 20.893C48.3101 21.943 50.22 22.4997 52.17 22.497V22.5C58.774 22.5 62.386 17.05 62.386 12.322C62.386 12.168 62.386 12.013 62.376 11.86C63.0779 11.3538 63.684 10.7267 64.166 10.008C63.511 10.298 62.816 10.488 62.104 10.571C62.8529 10.1251 63.4141 9.42207 63.683 8.593C62.9778 9.00971 62.2068 9.30324 61.403 9.461C60.8604 8.88721 60.1443 8.50754 59.3649 8.38034C58.5855 8.25315 57.7869 8.38549 57.09 8.757Z" fill="white"/>
</g>
</mask>
<g mask="url(#mask1_1809_34241)">
<rect x="40" width="30" height="30" fill="#1DA1F2"/>
</g>
<mask id="mask2_1809_34241" style="mask-type:alpha" maskUnits="userSpaceOnUse" x="80" y="0" width="30" height="30">
<g clip-path="url(#clip2_1809_34241)">
<path fill-rule="evenodd" clip-rule="evenodd" d="M101.873 17.9781C101.5 17.7921 99.665 16.8931 99.323 16.7691C98.98 16.6451 98.732 16.5831 98.483 16.9551C98.233 17.3271 97.519 18.1641 97.301 18.4121C97.083 18.6591 96.865 18.6901 96.492 18.5051C96.119 18.3191 94.916 17.9261 93.491 16.6611C92.381 15.6761 91.632 14.4601 91.414 14.0881C91.197 13.7161 91.391 13.5151 91.578 13.3301C91.746 13.1631 91.951 12.8961 92.138 12.6791C92.325 12.4621 92.387 12.3071 92.511 12.0591C92.636 11.8111 92.573 11.5941 92.481 11.4091C92.387 11.2231 91.641 9.39407 91.329 8.65007C91.026 7.92607 90.719 8.02407 90.489 8.01307C90.2508 8.00294 90.0124 7.9986 89.774 8.00007C89.526 8.00007 89.121 8.09307 88.779 8.46407C88.437 8.83607 87.473 9.73507 87.473 11.5641C87.473 13.3921 88.81 15.1581 88.997 15.4061C89.183 15.6541 91.629 19.4061 95.373 21.0141C96.263 21.3971 96.958 21.6261 97.5 21.7971C98.394 22.0801 99.208 22.0401 99.851 21.9441C100.568 21.8371 102.059 21.0461 102.371 20.1781C102.681 19.3101 102.681 18.5661 102.588 18.4121C102.495 18.2571 102.246 18.1641 101.873 17.9781ZM95.063 27.2321H95.058C92.8353 27.2323 90.653 26.6374 88.738 25.5091L88.285 25.2411L83.586 26.4681L84.841 21.9081L84.545 21.4411C83.3022 19.4735 82.644 17.1933 82.647 14.8661C82.65 8.05307 88.22 2.51007 95.067 2.51007C96.6967 2.50547 98.3113 2.8232 99.8178 3.44498C101.324 4.06676 102.693 4.98031 103.845 6.13307C105 7.27641 105.916 8.63816 106.54 10.139C107.164 11.6398 107.483 13.2498 107.478 14.8751C107.475 21.6881 101.906 27.2321 95.063 27.2321ZM105.629 4.36007C104.242 2.97256 102.595 1.87302 100.781 1.12475C98.9681 0.37648 97.0247 -0.00574932 95.063 6.53572e-05C86.829 6.53572e-05 80.128 6.66807 80.125 14.8651C80.1221 17.475 80.81 20.0392 82.119 22.2971L80 30.0001L87.918 27.9331C90.11 29.1211 92.5638 29.7432 95.057 29.7431H95.063C103.295 29.7431 109.997 23.0731 110 14.8771C110.006 12.9218 109.622 10.985 108.872 9.17946C108.122 7.37389 107.019 5.73562 105.629 4.36007Z" fill="white"/>
</g>
</mask>
<g mask="url(#mask2_1809_34241)">
<rect x="80" width="30" height="30" fill="#25D366"/>
</g>
<mask id="mask3_1809_34241" style="mask-type:alpha" maskUnits="userSpaceOnUse" x="120" y="0" width="30" height="30">
<g clip-path="url(#clip3_1809_34241)">
<path fill-rule="evenodd" clip-rule="evenodd" d="M135 0C143.284 0 150 6.716 150 15C150 23.284 143.284 30 135 30C126.716 30 120 23.284 120 15C120 6.716 126.716 0 135 0ZM130.757 12.172L127.93 15C126.993 15.9379 126.466 17.2096 126.466 18.5355C126.466 19.8614 126.993 21.1331 127.93 22.071C128.868 23.0082 130.14 23.5346 131.465 23.5346C132.791 23.5346 134.063 23.0082 135.001 22.071L137.829 19.243L136.486 17.899L133.657 20.728C133.075 21.3086 132.287 21.6347 131.465 21.6347C130.643 21.6347 129.855 21.3086 129.273 20.728C128.692 20.1463 128.366 19.3579 128.366 18.536C128.366 17.7141 128.692 16.9257 129.273 16.344L132.102 13.515L130.758 12.172H130.757ZM137.121 11.464L131.464 17.121L132.879 18.536L138.536 12.879L137.121 11.464ZM135 7.93L132.172 10.758L133.515 12.102L136.344 9.273C136.926 8.69239 137.714 8.3663 138.536 8.3663C139.358 8.3663 140.146 8.69239 140.728 9.273C141.309 9.85475 141.635 10.6431 141.635 11.465C141.635 12.2869 141.309 13.0752 140.728 13.657L137.899 16.486L139.243 17.829L142.07 15C143.007 14.0621 143.534 12.7904 143.534 11.4645C143.534 10.1386 143.007 8.86694 142.07 7.929C141.132 6.99183 139.86 6.4654 138.535 6.4654C137.209 6.4654 135.937 6.99183 134.999 7.929L135 7.93Z" fill="#F6F9F8"/>
</g>
</mask>
<g mask="url(#mask3_1809_34241)">
<rect x="120" width="30" height="30" fill="#35334E"/>
</g>
<path d="M162.188 8.42187V21.5781H161.406V8.42187H162.188Z" fill="#141414"/>
<mask id="mask4_1809_34241" style="mask-type:alpha" maskUnits="userSpaceOnUse" x="174" y="0" width="30" height="30">
<g clip-path="url(#clip4_1809_34241)">
<path fill-rule="evenodd" clip-rule="evenodd" d="M189.063 6.53572e-05C191.025 -0.00574932 192.968 0.37648 194.781 1.12475C196.595 1.87302 198.242 2.97256 199.629 4.36007C201.034 5.75004 202.144 7.40824 202.895 9.23609C203.646 11.0639 204.022 13.0241 204 15.0001C204 23.2841 197.284 30.0001 189 30.0001C186.292 30.0001 183.752 29.2821 181.559 28.0271L174 30.0001L176.045 22.5661C174.702 20.2712 173.996 17.6592 174 15.0001C174 6.71607 180.716 6.53572e-05 189 6.53572e-05H189.063Z" fill="white"/>
</g>
</mask>
<g mask="url(#mask4_1809_34241)">
<rect x="174" width="30" height="30" fill="#A92323"/>
</g>
<path d="M216.188 8.42187V21.5781H215.406V8.42187H216.188Z" fill="#141414"/>
<g clip-path="url(#clip5_1809_34241)">
<path d="M245.2 5H234.2C232.99 5 232 5.99 232 7.2V24.8L239.7 21.5L247.4 24.8V7.2C247.4 5.99 246.41 5 245.2 5ZM245.2 21.5L239.7 19.102L234.2 21.5V7.2H245.2V21.5Z" fill="#D8021E"/>
</g>
<defs>
<clipPath id="clip0_1809_34241">
<rect width="30" height="30" fill="white"/>
</clipPath>
<clipPath id="clip1_1809_34241">
<rect width="30" height="30" fill="white" transform="translate(40)"/>
</clipPath>
<clipPath id="clip2_1809_34241">
<rect width="30" height="30" fill="white" transform="translate(80)"/>
</clipPath>
<clipPath id="clip3_1809_34241">
<rect width="30" height="30" fill="white" transform="translate(120)"/>
</clipPath>
<clipPath id="clip4_1809_34241">
<rect width="30" height="30" fill="white" transform="translate(174)"/>
</clipPath>
<clipPath id="clip5_1809_34241">
<rect width="24" height="24" fill="white" transform="translate(228 3)"/>
</clipPath>
</defs>
</svg>
