<svg width="187" height="36" viewBox="0 0 187 36" fill="none" xmlns="http://www.w3.org/2000/svg">
<mask id="mask0_1809_8411" style="mask-type:alpha" maskUnits="userSpaceOnUse" x="0" y="0" width="36" height="36">
<g clip-path="url(#clip0_1809_8411)">
<path d="M18 36C27.9411 36 36 27.9411 36 18C36 8.05887 27.9411 0 18 0C8.05887 0 0 8.05887 0 18C0 27.9411 8.05887 36 18 36Z" fill="#F6F9F8"/>
<path fill-rule="evenodd" clip-rule="evenodd" d="M33 18C33 9.716 26.284 3 18 3C9.716 3 3 9.716 3 18C3 25.487 8.485 31.692 15.656 32.818V22.336H11.848V18H15.656V14.695C15.656 10.935 17.896 8.859 21.322 8.859C22.963 8.859 24.68 9.152 24.68 9.152V12.844H22.788C20.925 12.844 20.344 14 20.344 15.186V18H24.504L23.839 22.336H20.344V32.818C27.514 31.692 33 25.487 33 18Z" fill="#1877F2"/>
</g>
</mask>
<g mask="url(#mask0_1809_8411)">
<g clip-path="url(#clip1_1809_8411)">
<path d="M18 36C27.9411 36 36 27.9411 36 18C36 8.05887 27.9411 0 18 0C8.05887 0 0 8.05887 0 18C0 27.9411 8.05887 36 18 36Z" fill="#F6F9F8"/>
<path fill-rule="evenodd" clip-rule="evenodd" d="M33 18C33 9.716 26.284 3 18 3C9.716 3 3 9.716 3 18C3 25.487 8.485 31.692 15.656 32.818V22.336H11.848V18H15.656V14.695C15.656 10.935 17.896 8.859 21.322 8.859C22.963 8.859 24.68 9.152 24.68 9.152V12.844H22.788C20.925 12.844 20.344 14 20.344 15.186V18H24.504L23.839 22.336H20.344V32.818C27.514 31.692 33 25.487 33 18Z" fill="#1877F2"/>
</g>
</g>
<mask id="mask1_1809_8411" style="mask-type:alpha" maskUnits="userSpaceOnUse" x="38" y="0" width="36" height="36">
<g clip-path="url(#clip2_1809_8411)">
<path d="M56 36C65.9411 36 74 27.9411 74 18C74 8.05887 65.9411 0 56 0C46.0589 0 38 8.05887 38 18C38 27.9411 46.0589 36 56 36Z" fill="#F6F9F8"/>
<path fill-rule="evenodd" clip-rule="evenodd" d="M56 3C64.284 3 71 9.716 71 18C71 26.284 64.284 33 56 33C47.716 33 41 26.284 41 18C41 9.716 47.716 3 56 3ZM58.09 11.757C57.394 12.1267 56.8397 12.7159 56.5131 13.4331C56.1865 14.1503 56.106 14.9553 56.284 15.723C54.8577 15.6525 53.4622 15.2834 52.1875 14.6397C50.9128 13.996 49.7874 13.0919 48.884 11.986C48.4251 12.7735 48.2847 13.7067 48.4914 14.5944C48.6982 15.4821 49.2364 16.2572 49.996 16.761C49.4247 16.7442 48.8657 16.5905 48.366 16.313V16.359C48.3676 17.1862 48.6553 17.9873 49.1805 18.6264C49.7057 19.2655 50.4358 19.7031 51.247 19.865C50.7184 20.0085 50.1639 20.0293 49.626 19.926C49.8567 20.6379 50.3038 21.26 50.9051 21.7055C51.5064 22.151 52.2318 22.3977 52.98 22.411C51.4748 23.5885 49.5643 24.1214 47.667 23.893C49.3101 24.943 51.22 25.4997 53.17 25.497V25.5C59.774 25.5 63.386 20.05 63.386 15.322C63.386 15.168 63.386 15.013 63.376 14.86C64.0779 14.3538 64.684 13.7267 65.166 13.008C64.511 13.298 63.816 13.488 63.104 13.571C63.8529 13.1251 64.4141 12.4221 64.683 11.593C63.9778 12.0097 63.2068 12.3032 62.403 12.461C61.8604 11.8872 61.1443 11.5075 60.3649 11.3803C59.5855 11.2532 58.7869 11.3855 58.09 11.757Z" fill="#1DA1F2"/>
</g>
</mask>
<g mask="url(#mask1_1809_8411)">
<g clip-path="url(#clip3_1809_8411)">
<path d="M56 36C65.9411 36 74 27.9411 74 18C74 8.05887 65.9411 0 56 0C46.0589 0 38 8.05887 38 18C38 27.9411 46.0589 36 56 36Z" fill="#F6F9F8"/>
<path fill-rule="evenodd" clip-rule="evenodd" d="M56 3C64.284 3 71 9.716 71 18C71 26.284 64.284 33 56 33C47.716 33 41 26.284 41 18C41 9.716 47.716 3 56 3ZM58.09 11.757C57.394 12.1267 56.8397 12.7159 56.5131 13.4331C56.1865 14.1503 56.106 14.9553 56.284 15.723C54.8577 15.6525 53.4622 15.2834 52.1875 14.6397C50.9128 13.996 49.7874 13.0919 48.884 11.986C48.4251 12.7735 48.2847 13.7067 48.4914 14.5944C48.6982 15.4821 49.2364 16.2572 49.996 16.761C49.4247 16.7442 48.8657 16.5905 48.366 16.313V16.359C48.3676 17.1862 48.6553 17.9873 49.1805 18.6264C49.7057 19.2655 50.4358 19.7031 51.247 19.865C50.7184 20.0085 50.1639 20.0293 49.626 19.926C49.8567 20.6379 50.3038 21.26 50.9051 21.7055C51.5064 22.151 52.2318 22.3977 52.98 22.411C51.4748 23.5885 49.5643 24.1214 47.667 23.893C49.3101 24.943 51.22 25.4997 53.17 25.497V25.5C59.774 25.5 63.386 20.05 63.386 15.322C63.386 15.168 63.386 15.013 63.376 14.86C64.0779 14.3538 64.684 13.7267 65.166 13.008C64.511 13.298 63.816 13.488 63.104 13.571C63.8529 13.1251 64.4141 12.4221 64.683 11.593C63.9778 12.0097 63.2068 12.3032 62.403 12.461C61.8604 11.8872 61.1443 11.5075 60.3649 11.3803C59.5855 11.2532 58.7869 11.3855 58.09 11.757Z" fill="#1DA1F2"/>
</g>
</g>
<mask id="mask2_1809_8411" style="mask-type:alpha" maskUnits="userSpaceOnUse" x="76" y="0" width="36" height="36">
<g clip-path="url(#clip4_1809_8411)">
<path d="M94 36C103.941 36 112 27.9411 112 18C112 8.05887 103.941 0 94 0C84.0589 0 76 8.05887 76 18C76 27.9411 84.0589 36 94 36Z" fill="#F6F9F8"/>
<path fill-rule="evenodd" clip-rule="evenodd" d="M94 3C102.284 3 109 9.716 109 18C109 26.284 102.284 33 94 33C85.716 33 79 26.284 79 18C79 9.716 85.716 3 94 3ZM96.97 10.5H94.369V20.474C94.369 20.82 94.37 21.154 94.253 21.488C94.064 22.025 93.66 22.513 93.12 22.728C92.408 23.013 91.833 23.02 91.19 22.678L91.187 22.676C91.0957 22.6266 91.0066 22.5732 90.92 22.516C90.148 21.976 90.007 21.166 90.01 20.593C90.101 19.815 90.409 19.38 90.986 18.933C91.698 18.415 92.56 18.593 92.789 18.653L92.842 18.669L92.847 18.67V16.644H92.85V16.063C92.3646 15.9934 91.8712 16.0004 91.388 16.084C91.068 16.144 90.754 16.234 90.453 16.36C89.9716 16.5454 89.5242 16.8093 89.129 17.141C88.6812 17.5259 88.3042 17.9862 88.015 18.501C87.905 18.689 87.491 19.443 87.441 20.665C87.41 21.345 87.611 22.05 87.714 22.357L87.72 22.376C87.783 22.556 88.027 23.154 88.426 23.658C88.749 24.061 89.126 24.414 89.552 24.708C90.614 25.423 91.778 25.495 92.116 25.5H92.209L92.229 25.499C92.487 25.49 93.283 25.491 94.184 25.068C94.7896 24.7846 95.3317 24.3819 95.778 23.884L95.787 23.874C95.881 23.76 96.352 23.234 96.657 22.441C96.8469 21.9139 96.9526 21.3601 96.97 20.8V15.515L97.421 15.809L97.436 15.819C97.9178 16.095 98.4344 16.3052 98.972 16.444C99.595 16.608 100.418 16.653 100.546 16.659H100.563V14.102C100.243 14.136 99.593 14.036 98.928 13.708C98.8259 13.6556 98.7264 13.5982 98.63 13.536L98.615 13.526C98.341 13.3448 98.0892 13.132 97.865 12.892C97.4209 12.4001 97.1227 11.794 97.004 11.142L97 11.13C96.937 10.748 96.966 10.501 96.969 10.501L96.97 10.5Z" fill="black"/>
</g>
</mask>
<g mask="url(#mask2_1809_8411)">
<g clip-path="url(#clip5_1809_8411)">
<path d="M94 36C103.941 36 112 27.9411 112 18C112 8.05887 103.941 0 94 0C84.0589 0 76 8.05887 76 18C76 27.9411 84.0589 36 94 36Z" fill="#F6F9F8"/>
<path fill-rule="evenodd" clip-rule="evenodd" d="M94 3C102.284 3 109 9.716 109 18C109 26.284 102.284 33 94 33C85.716 33 79 26.284 79 18C79 9.716 85.716 3 94 3ZM96.97 10.5H94.369V20.474C94.369 20.82 94.37 21.154 94.253 21.488C94.064 22.025 93.66 22.513 93.12 22.728C92.408 23.013 91.833 23.02 91.19 22.678L91.187 22.676C91.0957 22.6266 91.0066 22.5732 90.92 22.516C90.148 21.976 90.007 21.166 90.01 20.593C90.101 19.815 90.409 19.38 90.986 18.933C91.698 18.415 92.56 18.593 92.789 18.653L92.842 18.669L92.847 18.67V16.644H92.85V16.063C92.3646 15.9934 91.8712 16.0004 91.388 16.084C91.068 16.144 90.754 16.234 90.453 16.36C89.9716 16.5454 89.5242 16.8093 89.129 17.141C88.6812 17.5259 88.3042 17.9862 88.015 18.501C87.905 18.689 87.491 19.443 87.441 20.665C87.41 21.345 87.611 22.05 87.714 22.357L87.72 22.376C87.783 22.556 88.027 23.154 88.426 23.658C88.749 24.061 89.126 24.414 89.552 24.708C90.614 25.423 91.778 25.495 92.116 25.5H92.209L92.229 25.499C92.487 25.49 93.283 25.491 94.184 25.068C94.7896 24.7846 95.3317 24.3819 95.778 23.884L95.787 23.874C95.881 23.76 96.352 23.234 96.657 22.441C96.8469 21.9139 96.9526 21.3601 96.97 20.8V15.515L97.421 15.809L97.436 15.819C97.9178 16.095 98.4344 16.3052 98.972 16.444C99.595 16.608 100.418 16.653 100.546 16.659H100.563V14.102C100.243 14.136 99.593 14.036 98.928 13.708C98.8259 13.6556 98.7264 13.5982 98.63 13.536L98.615 13.526C98.341 13.3448 98.0892 13.132 97.865 12.892C97.4209 12.4001 97.1227 11.794 97.004 11.142L97 11.13C96.937 10.748 96.966 10.501 96.969 10.501L96.97 10.5Z" fill="black"/>
</g>
</g>
<mask id="mask3_1809_8411" style="mask-type:alpha" maskUnits="userSpaceOnUse" x="114" y="0" width="36" height="36">
<g clip-path="url(#clip6_1809_8411)">
<path d="M132 36C141.941 36 150 27.9411 150 18C150 8.05887 141.941 0 132 0C122.059 0 114 8.05887 114 18C114 27.9411 122.059 36 132 36Z" fill="#F6F9F8"/>
<path fill-rule="evenodd" clip-rule="evenodd" d="M132 3C140.284 3 147 9.716 147 18C147 26.284 140.284 33 132 33C123.716 33 117 26.284 117 18C117 9.716 123.716 3 132 3ZM132 9H131.014C129.874 9.003 129.381 9.01 128.884 9.029L128.697 9.036L128.29 9.054C127.33 9.098 126.676 9.251 126.105 9.474C125.504 9.6995 124.96 10.0534 124.51 10.511C124.052 10.961 123.697 11.505 123.471 12.106C123.249 12.678 123.097 13.332 123.053 14.29C123.013 15.1287 122.995 15.9684 123.001 16.808V19.193C123.004 20.587 123.018 20.936 123.053 21.711C123.097 22.671 123.249 23.323 123.471 23.895C123.698 24.495 124.051 25.039 124.51 25.489C124.96 25.947 125.504 26.301 126.105 26.527C126.676 26.75 127.332 26.902 128.289 26.946C129.099 26.983 129.446 26.996 131.014 26.999L131.862 27H132.987C133.697 27.0032 134.407 26.9936 135.117 26.971L135.305 26.964L135.711 26.946C136.671 26.902 137.323 26.75 137.895 26.527C138.493 26.2959 139.036 25.9424 139.49 25.4891C139.943 25.0359 140.297 24.4929 140.528 23.895C140.75 23.323 140.902 22.668 140.946 21.71L140.964 21.304L140.971 21.117C140.989 20.621 140.997 20.127 140.999 18.987L141 18.527V17.013C141.001 16.3976 140.995 15.7822 140.98 15.167L140.975 14.977C140.967 14.759 140.958 14.547 140.945 14.289C140.902 13.329 140.75 12.678 140.528 12.106C140.302 11.5054 139.947 10.9614 139.489 10.512C139.04 10.0539 138.496 9.69928 137.895 9.473C137.323 9.251 136.669 9.099 135.711 9.055C134.901 9.018 134.555 9.005 132.986 9.002H132V9ZM132 10.621V10.623H133.21C134.019 10.6185 134.829 10.6359 135.637 10.675C136.514 10.715 136.991 10.862 137.308 10.985C137.699 11.129 138.054 11.359 138.344 11.658C138.644 11.948 138.874 12.303 139.017 12.694C139.141 13.011 139.287 13.488 139.327 14.365L139.349 14.877L139.356 15.067C139.372 15.544 139.378 16.062 139.379 17.223V18.78C139.383 19.4987 139.375 20.2175 139.356 20.936L139.349 21.126L139.327 21.638C139.287 22.516 139.141 22.992 139.017 23.309C138.867 23.6971 138.638 24.0496 138.344 24.3438C138.05 24.638 137.697 24.8673 137.309 25.017C136.992 25.141 136.515 25.287 135.638 25.327L135.126 25.349L134.936 25.356C134.217 25.3751 133.498 25.3827 132.779 25.379H131.222C130.503 25.3827 129.785 25.3751 129.066 25.356L128.876 25.349C128.705 25.3423 128.535 25.3349 128.364 25.327C127.486 25.287 127.01 25.141 126.692 25.017C126.301 24.8729 125.947 24.643 125.656 24.344C125.357 24.0533 125.127 23.6993 124.983 23.308C124.86 22.991 124.713 22.515 124.673 21.638C124.637 20.84 124.625 20.512 124.622 19.003L124.621 18.538V16.998C124.625 15.489 124.637 15.161 124.673 14.364C124.713 13.487 124.86 13.01 124.983 12.693C125.127 12.301 125.357 11.947 125.656 11.657C125.946 11.357 126.301 11.127 126.692 10.984C127.01 10.86 127.486 10.714 128.364 10.674L128.876 10.652L129.066 10.645C129.785 10.6259 130.503 10.6183 131.222 10.622H132.001L132 10.621ZM132 13.379C130.774 13.379 129.599 13.8659 128.732 14.7326C127.865 15.5993 127.378 16.7748 127.378 18.0005C127.378 19.2262 127.865 20.4017 128.732 21.2684C129.599 22.1351 130.774 22.622 132 22.622C133.226 22.622 134.401 22.1351 135.268 21.2684C136.135 20.4017 136.622 19.2262 136.622 18.0005C136.622 16.7748 136.135 15.5993 135.268 14.7326C134.401 13.8659 133.226 13.379 132 13.379ZM132 15C132.796 15 133.559 15.3162 134.122 15.8791C134.685 16.442 135.001 17.2055 135.001 18.0015C135.001 18.7975 134.685 19.561 134.122 20.1239C133.559 20.6868 132.796 21.003 132 21.003C131.204 21.003 130.441 20.6868 129.878 20.1239C129.315 19.561 128.998 18.7975 128.998 18.0015C128.998 17.2055 129.315 16.442 129.878 15.8791C130.441 15.3162 131.204 15 132 15ZM136.804 12.118C136.518 12.118 136.243 12.2318 136.04 12.4343C135.838 12.6369 135.724 12.9116 135.724 13.198C135.724 13.4844 135.838 13.7591 136.04 13.9617C136.243 14.1642 136.518 14.278 136.804 14.278C137.09 14.278 137.365 14.1642 137.568 13.9617C137.77 13.7591 137.884 13.4844 137.884 13.198C137.884 12.9116 137.77 12.6369 137.568 12.4343C137.365 12.2318 137.09 12.118 136.804 12.118Z" fill="#C13584"/>
</g>
</mask>
<g mask="url(#mask3_1809_8411)">
<g clip-path="url(#clip7_1809_8411)">
<path d="M132 36C141.941 36 150 27.9411 150 18C150 8.05887 141.941 0 132 0C122.059 0 114 8.05887 114 18C114 27.9411 122.059 36 132 36Z" fill="#F6F9F8"/>
<path fill-rule="evenodd" clip-rule="evenodd" d="M132 3C140.284 3 147 9.716 147 18C147 26.284 140.284 33 132 33C123.716 33 117 26.284 117 18C117 9.716 123.716 3 132 3ZM132 9H131.014C129.874 9.003 129.381 9.01 128.884 9.029L128.697 9.036L128.29 9.054C127.33 9.098 126.676 9.251 126.105 9.474C125.504 9.6995 124.96 10.0534 124.51 10.511C124.052 10.961 123.697 11.505 123.471 12.106C123.249 12.678 123.097 13.332 123.053 14.29C123.013 15.1287 122.995 15.9684 123.001 16.808V19.193C123.004 20.587 123.018 20.936 123.053 21.711C123.097 22.671 123.249 23.323 123.471 23.895C123.698 24.495 124.051 25.039 124.51 25.489C124.96 25.947 125.504 26.301 126.105 26.527C126.676 26.75 127.332 26.902 128.289 26.946C129.099 26.983 129.446 26.996 131.014 26.999L131.862 27H132.987C133.697 27.0032 134.407 26.9936 135.117 26.971L135.305 26.964L135.711 26.946C136.671 26.902 137.323 26.75 137.895 26.527C138.493 26.2959 139.036 25.9424 139.49 25.4891C139.943 25.0359 140.297 24.4929 140.528 23.895C140.75 23.323 140.902 22.668 140.946 21.71L140.964 21.304L140.971 21.117C140.989 20.621 140.997 20.127 140.999 18.987L141 18.527V17.013C141.001 16.3976 140.995 15.7822 140.98 15.167L140.975 14.977C140.967 14.759 140.958 14.547 140.945 14.289C140.902 13.329 140.75 12.678 140.528 12.106C140.302 11.5054 139.947 10.9614 139.489 10.512C139.04 10.0539 138.496 9.69928 137.895 9.473C137.323 9.251 136.669 9.099 135.711 9.055C134.901 9.018 134.555 9.005 132.986 9.002H132V9ZM132 10.621V10.623H133.21C134.019 10.6185 134.829 10.6359 135.637 10.675C136.514 10.715 136.991 10.862 137.308 10.985C137.699 11.129 138.054 11.359 138.344 11.658C138.644 11.948 138.874 12.303 139.017 12.694C139.141 13.011 139.287 13.488 139.327 14.365L139.349 14.877L139.356 15.067C139.372 15.544 139.378 16.062 139.379 17.223V18.78C139.383 19.4987 139.375 20.2175 139.356 20.936L139.349 21.126L139.327 21.638C139.287 22.516 139.141 22.992 139.017 23.309C138.867 23.6971 138.638 24.0496 138.344 24.3438C138.05 24.638 137.697 24.8673 137.309 25.017C136.992 25.141 136.515 25.287 135.638 25.327L135.126 25.349L134.936 25.356C134.217 25.3751 133.498 25.3827 132.779 25.379H131.222C130.503 25.3827 129.785 25.3751 129.066 25.356L128.876 25.349C128.705 25.3423 128.535 25.3349 128.364 25.327C127.486 25.287 127.01 25.141 126.692 25.017C126.301 24.8729 125.947 24.643 125.656 24.344C125.357 24.0533 125.127 23.6993 124.983 23.308C124.86 22.991 124.713 22.515 124.673 21.638C124.637 20.84 124.625 20.512 124.622 19.003L124.621 18.538V16.998C124.625 15.489 124.637 15.161 124.673 14.364C124.713 13.487 124.86 13.01 124.983 12.693C125.127 12.301 125.357 11.947 125.656 11.657C125.946 11.357 126.301 11.127 126.692 10.984C127.01 10.86 127.486 10.714 128.364 10.674L128.876 10.652L129.066 10.645C129.785 10.6259 130.503 10.6183 131.222 10.622H132.001L132 10.621ZM132 13.379C130.774 13.379 129.599 13.8659 128.732 14.7326C127.865 15.5993 127.378 16.7748 127.378 18.0005C127.378 19.2262 127.865 20.4017 128.732 21.2684C129.599 22.1351 130.774 22.622 132 22.622C133.226 22.622 134.401 22.1351 135.268 21.2684C136.135 20.4017 136.622 19.2262 136.622 18.0005C136.622 16.7748 136.135 15.5993 135.268 14.7326C134.401 13.8659 133.226 13.379 132 13.379ZM132 15C132.796 15 133.559 15.3162 134.122 15.8791C134.685 16.442 135.001 17.2055 135.001 18.0015C135.001 18.7975 134.685 19.561 134.122 20.1239C133.559 20.6868 132.796 21.003 132 21.003C131.204 21.003 130.441 20.6868 129.878 20.1239C129.315 19.561 128.998 18.7975 128.998 18.0015C128.998 17.2055 129.315 16.442 129.878 15.8791C130.441 15.3162 131.204 15 132 15ZM136.804 12.118C136.518 12.118 136.243 12.2318 136.04 12.4343C135.838 12.6369 135.724 12.9116 135.724 13.198C135.724 13.4844 135.838 13.7591 136.04 13.9617C136.243 14.1642 136.518 14.278 136.804 14.278C137.09 14.278 137.365 14.1642 137.568 13.9617C137.77 13.7591 137.884 13.4844 137.884 13.198C137.884 12.9116 137.77 12.6369 137.568 12.4343C137.365 12.2318 137.09 12.118 136.804 12.118Z" fill="#C13584"/>
</g>
</g>
<g clip-path="url(#clip8_1809_8411)">
<path d="M187 18C187 8.33502 179.165 0.5 169.5 0.5C159.835 0.5 152 8.33502 152 18C152 27.665 159.835 35.5 169.5 35.5C179.165 35.5 187 27.665 187 18Z" fill="#F6F9F8"/>
<path d="M169.5 32.5833C177.554 32.5833 184.083 26.0542 184.083 18C184.083 9.94585 177.554 3.41667 169.5 3.41667C161.446 3.41667 154.917 9.94585 154.917 18C154.917 26.0542 161.446 32.5833 169.5 32.5833Z" fill="#F6F9F8"/>
<path fill-rule="evenodd" clip-rule="evenodd" d="M184.078 18.35C184.022 18.9197 183.986 19.4895 183.903 20.0543C183.447 23.18 182.115 25.8779 179.921 28.1529C179.893 28.179 179.863 28.2033 179.832 28.2258C178.283 23.5582 175.086 20.9215 170.146 20.3188C172.036 20.0417 173.516 19.1618 174.526 17.58C175.545 15.9856 175.747 14.2599 175.16 12.4671C174.266 9.7332 171.608 8.09598 168.683 8.43917C166.016 8.75223 163.785 11.1011 163.54 13.7718C163.249 16.9685 165.561 19.9765 168.798 20.3246C163.921 20.9108 160.727 23.5475 159.157 28.2385C158.999 28.0713 158.83 27.905 158.673 27.7261C156.379 25.1274 155.127 22.1018 154.959 18.6329C154.95 18.5373 154.936 18.4422 154.917 18.3481V17.651C154.936 17.5576 154.951 17.4624 154.96 17.3671C155.091 14.431 156.01 11.7613 157.761 9.40556C160.198 6.12917 163.454 4.18473 167.501 3.58778C168.047 3.50709 168.6 3.47403 169.15 3.41667H169.85C169.935 3.43612 170.02 3.44973 170.107 3.45848C172.803 3.5732 175.29 4.35389 177.523 5.86376C181.13 8.30209 183.26 11.6815 183.912 16.0021C183.995 16.5465 184.026 17.0988 184.083 17.6471V18.3471L184.078 18.35Z" fill="#35334E"/>
</g>
<defs>
<clipPath id="clip0_1809_8411">
<rect width="36" height="36" fill="white"/>
</clipPath>
<clipPath id="clip1_1809_8411">
<rect width="36" height="36" fill="white"/>
</clipPath>
<clipPath id="clip2_1809_8411">
<rect width="36" height="36" fill="white" transform="translate(38)"/>
</clipPath>
<clipPath id="clip3_1809_8411">
<rect width="36" height="36" fill="white" transform="translate(38)"/>
</clipPath>
<clipPath id="clip4_1809_8411">
<rect width="36" height="36" fill="white" transform="translate(76)"/>
</clipPath>
<clipPath id="clip5_1809_8411">
<rect width="36" height="36" fill="white" transform="translate(76)"/>
</clipPath>
<clipPath id="clip6_1809_8411">
<rect width="36" height="36" fill="white" transform="translate(114)"/>
</clipPath>
<clipPath id="clip7_1809_8411">
<rect width="36" height="36" fill="white" transform="translate(114)"/>
</clipPath>
<clipPath id="clip8_1809_8411">
<rect width="35" height="35" fill="white" transform="translate(152 0.5)"/>
</clipPath>
</defs>
</svg>
